<?xml version="1.0" encoding="UTF-8" standalone="no"?>
<svg
   xmlns:dc="http://purl.org/dc/elements/1.1/"
   xmlns:cc="http://creativecommons.org/ns#"
   xmlns:rdf="http://www.w3.org/1999/02/22-rdf-syntax-ns#"
   xmlns:svg="http://www.w3.org/2000/svg"
   xmlns="http://www.w3.org/2000/svg"
   width="8.5in"
   height="11in"
   viewBox="0 0 215.9 279.4"
   version="1.1"
   id="svg8">
  <defs
     id="defs2" />
  <metadata
     id="metadata5">
    <rdf:RDF>
      <cc:Work
         rdf:about="">
        <dc:format>image/svg+xml</dc:format>
        <dc:type
           rdf:resource="http://purl.org/dc/dcmitype/StillImage" />
        <dc:title></dc:title>
      </cc:Work>
    </rdf:RDF>
  </metadata>
  <g
     style="stroke-width:1.0000025"
     transform="matrix(0.99997654,0,0,1.0000182,0.00253472,-0.00258378)"
     id="g896">
    <rect
       ry="3.1037209"
       style="display:inline;opacity:1;fill:#f7f000;fill-opacity:1;stroke:#ff3c00;stroke-width:3.08264279;stroke-linecap:butt;stroke-linejoin:round;stroke-miterlimit:4;stroke-dasharray:none;stroke-opacity:1"
       id="rect4659"
       width="212.82236"
       height="276.31229"
       x="1.5388187"
       y="1.5439092"
       rx="3.0938232" />
    <rect
       ry="3.1037209"
       style="display:inline;opacity:1;fill:#ff3c00;fill-opacity:1;stroke:#ff3c00;stroke-width:3.04278469;stroke-linecap:butt;stroke-linejoin:round;stroke-miterlimit:4;stroke-dasharray:none;stroke-opacity:1"
       id="rect4659-3"
       width="212.82236"
       height="49.149887"
       x="1.5388187"
       y="1.5439092"
       rx="3.0938232" />
    <text
       xml:space="preserve"
       style="font-style:normal;font-weight:normal;font-size:9.48995113px;line-height:1.25;font-family:sans-serif;letter-spacing:0px;word-spacing:0px;display:inline;fill:#f7f000;fill-opacity:1;stroke:none;stroke-width:0.23725045"
       x="57.428974"
       y="31.822018"
       id="text4549"
       transform="scale(1.0036015,0.99641138)"><tspan
         id="tspan4547"
         x="57.428974"
         y="31.822018"
         style="font-style:normal;font-variant:normal;font-weight:bold;font-stretch:normal;font-size:22.77588081px;line-height:1.25;font-family:Arial;-inkscape-font-specification:'Arial Bold';fill:#f7f000;fill-opacity:1;stroke-width:0.23725045">DANGER</tspan></text>
    <path
       style="display:inline;fill:#f7f000;fill-opacity:1;stroke:#000000;stroke-width:1.93744135;stroke-linecap:butt;stroke-linejoin:round;stroke-miterlimit:4;stroke-dasharray:none;stroke-opacity:1"
       d="M 34.38249,7.6908423 13.8042,43.444847 h 41.156579 z"
       id="path4573" />
    <text
       transform="scale(1.0036015,0.99641138)"
       xml:space="preserve"
       style="font-style:normal;font-weight:normal;font-size:10.25222111px;line-height:1.25;font-family:sans-serif;letter-spacing:0px;word-spacing:0px;display:inline;fill:#000000;fill-opacity:1;stroke:none;stroke-width:0.25630733"
       x="30.070332"
       y="38.254997"
       id="text4549-3"><tspan
         id="tspan4547-4"
         x="30.070332"
         y="38.254997"
         style="font-style:normal;font-variant:normal;font-weight:bold;font-stretch:normal;font-size:24.60532951px;line-height:1.25;font-family:Arial;-inkscape-font-specification:'Arial Bold';fill:#000000;fill-opacity:1;stroke-width:0.25630733">!</tspan></text>
    <path
       style="display:inline;fill:#f7f000;fill-opacity:1;stroke:#000000;stroke-width:1.93744135;stroke-linecap:butt;stroke-linejoin:round;stroke-miterlimit:4;stroke-dasharray:none;stroke-opacity:1"
       d="M 181.5175,7.6911687 160.93921,43.445169 h 41.15659 z"
       id="path4573-9" />
    <text
       transform="scale(1.0036015,0.99641138)"
       xml:space="preserve"
       style="font-style:normal;font-weight:normal;font-size:10.25222111px;line-height:1.25;font-family:sans-serif;letter-spacing:0px;word-spacing:0px;display:inline;fill:#000000;fill-opacity:1;stroke:none;stroke-width:0.25630733"
       x="176.67731"
       y="38.255329"
       id="text4549-3-7"><tspan
         id="tspan4547-4-9"
         x="176.67731"
         y="38.255329"
         style="font-style:normal;font-variant:normal;font-weight:bold;font-stretch:normal;font-size:24.60532951px;line-height:1.25;font-family:Arial;-inkscape-font-specification:'Arial Bold';fill:#000000;fill-opacity:1;stroke-width:0.25630733">!</tspan></text>
    <g
       id="g3"
       transform="matrix(0.71762226,0,0,0.71248096,-99.406593,0.38683369)"
       style="display:inline;fill:#ff3c00;fill-opacity:1;stroke-width:0.84204853">
      <path
         style="fill:#ff3c00;fill-opacity:1;stroke-width:0.84204853"
         id="path5"
         d="m 271.964,292.3 -39.452,68.367 c 35.911,20.737 76.796,20.737 112.707,0 L 305.768,292.3 c -0.253,0.169 -0.506,0.338 -0.759,0.507 -0.928,0.505 -1.939,1.011 -2.95,1.432 -1.012,0.422 -2.023,0.844 -3.119,1.181 -1.096,0.338 -2.108,0.591 -3.204,0.844 -1.096,0.252 -2.192,0.421 -3.372,0.505 -1.097,0.085 -2.276,0.169 -3.457,0.169 -1.18,0 -2.275,-0.084 -3.456,-0.169 -1.096,-0.084 -2.276,-0.253 -3.372,-0.505 -1.096,-0.253 -2.191,-0.506 -3.204,-0.844 -1.096,-0.337 -2.107,-0.674 -3.119,-1.181 -1.012,-0.421 -2.023,-0.927 -2.95,-1.432 -0.337,-0.169 -0.589,-0.338 -0.842,-0.507 z" />
      <path
         style="fill:#ff3c00;fill-opacity:1;stroke-width:0.84204853"
         id="path7"
         d="M 232.512,165.43 C 196.6,186.167 176.2,221.574 176.2,263.048 h 78.903 c 0,-1.18 0.084,-2.36 0.169,-3.456 0.084,-1.096 0.337,-2.276 0.505,-3.372 0.253,-1.096 0.506,-2.191 0.843,-3.203 0.337,-1.096 0.674,-2.107 1.18,-3.119 0.422,-1.012 0.927,-2.024 1.434,-2.951 0.505,-0.927 1.096,-1.854 1.686,-2.782 0.589,-0.928 1.264,-1.771 1.938,-2.614 0.674,-0.843 1.433,-1.601 2.191,-2.36 0.759,-0.758 1.602,-1.517 2.445,-2.191 0.843,-0.674 1.686,-1.349 2.613,-1.938 0.674,-0.421 1.349,-0.843 2.023,-1.265 z" />
      <path
         style="fill:#ff3c00;fill-opacity:1;stroke-width:0.84204853"
         id="path9"
         d="m 345.219,165.43 -39.451,68.367 c 0.674,0.421 1.349,0.758 2.023,1.265 0.927,0.589 1.77,1.265 2.612,1.938 0.843,0.674 1.603,1.434 2.445,2.191 0.758,0.759 1.518,1.602 2.191,2.36 0.674,0.843 1.35,1.686 1.938,2.614 0.591,0.927 1.181,1.855 1.687,2.782 0.506,0.927 1.012,1.939 1.433,2.951 0.422,1.012 0.844,2.023 1.181,3.119 0.337,1.096 0.591,2.107 0.843,3.203 0.253,1.096 0.422,2.191 0.506,3.372 0.085,1.096 0.169,2.276 0.169,3.456 h 78.903 c -0.168,-41.474 -20.568,-76.881 -56.48,-97.618 z" />
      <path
         style="fill:#ff3c00;fill-opacity:1;stroke-width:0.84204853"
         d="m 311.33,263.048 a 22.507,22.507 0 0 1 -22.507,22.507 22.507,22.507 0 0 1 -22.507,-22.507 22.507,22.507 0 0 1 22.507,-22.507 22.507,22.507 0 0 1 22.507,22.507 z"
         id="circle11" />
    </g>
    <text
       transform="scale(1.0036015,0.99641138)"
       xml:space="preserve"
       style="font-style:normal;font-weight:normal;font-size:10.25222111px;line-height:1.25;font-family:sans-serif;letter-spacing:0px;word-spacing:0px;display:inline;fill:#000000;fill-opacity:1;stroke:none;stroke-width:0.25630733"
       x="107.15862"
       y="78.904076"
       id="text4549-8"><tspan
         id="tspan4547-9"
         x="107.15862"
         y="78.904076"
         style="font-style:normal;font-variant:normal;font-weight:bold;font-stretch:normal;font-size:24.60532951px;line-height:1.25;font-family:Arial;-inkscape-font-specification:'Arial Bold';text-align:center;text-anchor:middle;fill:#ff0000;fill-opacity:1;stroke-width:0.25630733">Radioactive</tspan><tspan
         x="107.15862"
         y="109.66075"
         style="font-style:normal;font-variant:normal;font-weight:bold;font-stretch:normal;font-size:24.60532951px;line-height:1.25;font-family:Arial;-inkscape-font-specification:'Arial Bold';text-align:center;text-anchor:middle;fill:#ff0000;fill-opacity:1;stroke-width:0.25630733"
         id="tspan4569">Material</tspan></text>
  </g>
</svg>
